<svg width="281" height="68" viewBox="0 0 281 68" fill="none" xmlns="http://www.w3.org/2000/svg">
<rect width="281" height="68" fill="white"/>
<path d="M50.3072 23.1865C49.4801 22.3536 48.4966 21.6923 47.4131 21.2408C46.3296 20.7893 45.1675 20.5564 43.9937 20.5555C41.7735 20.5559 39.6343 21.3899 37.9997 22.8925C36.3653 21.3897 34.226 20.5556 32.0057 20.5555C30.8305 20.5567 29.6672 20.7903 28.5826 21.2429C27.4981 21.6955 26.5137 22.358 25.6862 23.1925C22.1567 26.737 22.1582 32.281 25.6892 35.8105L37.9997 48.121L50.3102 35.8105C53.8412 32.281 53.8427 26.737 50.3072 23.1865V23.1865Z" fill="#131313"/>
<path d="M67.9893 41H65.7812V27.4365H73.4443V29.3105H67.9893V33.541H73.0918V35.4058H67.9893V41ZM79.7158 30.5352C81.0146 30.5352 81.995 30.8228 82.6567 31.3979C83.3247 31.9731 83.6587 32.87 83.6587 34.0884V41H82.1094L81.6919 39.5435H81.6177C81.327 39.9146 81.027 40.2207 80.7178 40.4619C80.4085 40.7031 80.0498 40.8825 79.6416 41C79.2396 41.1237 78.7479 41.1855 78.1665 41.1855C77.5542 41.1855 77.0068 41.0742 76.5244 40.8516C76.042 40.6227 75.6616 40.2764 75.3833 39.8125C75.105 39.3486 74.9658 38.7611 74.9658 38.0498C74.9658 36.9922 75.3586 36.1974 76.144 35.6655C76.9357 35.1336 78.1294 34.8398 79.7251 34.7842L81.5063 34.7192V34.1812C81.5063 33.4699 81.3394 32.9627 81.0054 32.6597C80.6776 32.3566 80.2137 32.2051 79.6138 32.2051C79.1004 32.2051 78.6025 32.2793 78.1201 32.4277C77.6377 32.5762 77.1676 32.7586 76.71 32.9751L76.0049 31.4351C76.5059 31.1691 77.0749 30.9526 77.7119 30.7856C78.3551 30.6187 79.0231 30.5352 79.7158 30.5352ZM81.4971 36.0923L80.1704 36.1387C79.0819 36.1758 78.318 36.3613 77.8789 36.6953C77.4398 37.0293 77.2202 37.487 77.2202 38.0684C77.2202 38.5755 77.3717 38.9466 77.6748 39.1816C77.9779 39.4105 78.3768 39.5249 78.8716 39.5249C79.6261 39.5249 80.2508 39.3115 80.7456 38.8848C81.2466 38.4518 81.4971 37.8179 81.4971 36.9829V36.0923ZM89.0581 41L85.1523 30.73H87.4624L89.5776 36.7603C89.7137 37.1437 89.8374 37.5581 89.9487 38.0034C90.0601 38.4487 90.1374 38.8229 90.1807 39.126H90.2549C90.2982 38.8105 90.3817 38.4333 90.5054 37.9941C90.6291 37.5488 90.7559 37.1375 90.8857 36.7603L93.001 30.73H95.3018L91.396 41H89.0581ZM105.952 35.8418C105.952 36.6953 105.841 37.453 105.618 38.1147C105.396 38.7765 105.071 39.3363 104.644 39.7939C104.217 40.2454 103.704 40.5918 103.104 40.833C102.504 41.068 101.827 41.1855 101.072 41.1855C100.367 41.1855 99.7209 41.068 99.1333 40.833C98.5457 40.5918 98.0355 40.2454 97.6025 39.7939C97.1758 39.3363 96.8449 38.7765 96.6099 38.1147C96.3748 37.453 96.2573 36.6953 96.2573 35.8418C96.2573 34.71 96.4521 33.7513 96.8418 32.9658C97.2376 32.1742 97.8005 31.5711 98.5303 31.1567C99.2601 30.7424 100.129 30.5352 101.137 30.5352C102.083 30.5352 102.918 30.7424 103.642 31.1567C104.366 31.5711 104.932 32.1742 105.34 32.9658C105.748 33.7575 105.952 34.7161 105.952 35.8418ZM98.5024 35.8418C98.5024 36.5902 98.5921 37.2303 98.7715 37.7622C98.957 38.2941 99.2415 38.7023 99.625 38.9868C100.008 39.2651 100.503 39.4043 101.109 39.4043C101.715 39.4043 102.21 39.2651 102.594 38.9868C102.977 38.7023 103.259 38.2941 103.438 37.7622C103.617 37.2303 103.707 36.5902 103.707 35.8418C103.707 35.0934 103.617 34.4595 103.438 33.9399C103.259 33.4142 102.977 33.0153 102.594 32.7432C102.21 32.4648 101.712 32.3257 101.1 32.3257C100.197 32.3257 99.5384 32.6287 99.124 33.2349C98.7096 33.841 98.5024 34.71 98.5024 35.8418ZM117.41 30.73V41H115.693L115.396 39.6177H115.276C115.059 39.9702 114.784 40.264 114.45 40.499C114.116 40.7279 113.745 40.8979 113.337 41.0093C112.929 41.1268 112.499 41.1855 112.047 41.1855C111.274 41.1855 110.612 41.0557 110.062 40.7959C109.518 40.5299 109.1 40.1217 108.81 39.5713C108.519 39.0208 108.374 38.3096 108.374 37.4375V30.73H110.563V37.0293C110.563 37.8271 110.724 38.424 111.045 38.8198C111.373 39.2157 111.88 39.4136 112.567 39.4136C113.229 39.4136 113.754 39.2775 114.144 39.0054C114.534 38.7332 114.809 38.3312 114.97 37.7993C115.137 37.2674 115.22 36.6149 115.22 35.8418V30.73H117.41ZM125.741 30.5352C125.914 30.5352 126.103 30.5444 126.307 30.563C126.511 30.5815 126.687 30.6063 126.835 30.6372L126.631 32.6782C126.501 32.6411 126.341 32.6133 126.149 32.5947C125.963 32.5762 125.796 32.5669 125.648 32.5669C125.258 32.5669 124.887 32.6318 124.535 32.7617C124.182 32.8854 123.87 33.0771 123.598 33.3369C123.326 33.5905 123.112 33.909 122.958 34.2925C122.803 34.6759 122.726 35.1213 122.726 35.6284V41H120.536V30.73H122.243L122.54 32.5391H122.642C122.846 32.1742 123.1 31.8402 123.403 31.5371C123.706 31.234 124.052 30.9928 124.442 30.8135C124.838 30.6279 125.271 30.5352 125.741 30.5352ZM130.917 30.73V41H128.737V30.73H130.917ZM129.841 26.7964C130.175 26.7964 130.463 26.8861 130.704 27.0654C130.951 27.2448 131.075 27.554 131.075 27.9932C131.075 28.4261 130.951 28.7354 130.704 28.9209C130.463 29.1003 130.175 29.1899 129.841 29.1899C129.495 29.1899 129.201 29.1003 128.96 28.9209C128.725 28.7354 128.607 28.4261 128.607 27.9932C128.607 27.554 128.725 27.2448 128.96 27.0654C129.201 26.8861 129.495 26.7964 129.841 26.7964ZM137.866 39.4229C138.151 39.4229 138.432 39.3981 138.71 39.3486C138.989 39.293 139.242 39.228 139.471 39.1538V40.8052C139.23 40.9103 138.918 41 138.534 41.0742C138.151 41.1484 137.752 41.1855 137.337 41.1855C136.756 41.1855 136.233 41.0897 135.77 40.8979C135.306 40.7 134.938 40.363 134.666 39.8867C134.393 39.4105 134.257 38.7518 134.257 37.9106V32.3906H132.856V31.4165L134.359 30.6465L135.074 28.4478H136.447V30.73H139.388V32.3906H136.447V37.8828C136.447 38.4023 136.577 38.7889 136.836 39.0425C137.096 39.2961 137.439 39.4229 137.866 39.4229ZM145.65 30.5352C146.565 30.5352 147.351 30.7238 148.006 31.1011C148.662 31.4784 149.166 32.0133 149.519 32.7061C149.871 33.3988 150.047 34.2275 150.047 35.1924V36.3613H143.191C143.216 37.3571 143.482 38.124 143.989 38.6621C144.503 39.2002 145.22 39.4692 146.142 39.4692C146.797 39.4692 147.385 39.4074 147.904 39.2837C148.43 39.1538 148.971 38.9652 149.528 38.7178V40.4897C149.014 40.731 148.492 40.9072 147.96 41.0186C147.428 41.1299 146.791 41.1855 146.049 41.1855C145.041 41.1855 144.153 40.9907 143.386 40.6011C142.625 40.2052 142.029 39.6177 141.596 38.8384C141.169 38.0591 140.956 37.0911 140.956 35.9346C140.956 34.7842 141.15 33.807 141.54 33.0029C141.93 32.1989 142.477 31.5866 143.182 31.166C143.887 30.7454 144.71 30.5352 145.65 30.5352ZM145.65 32.1772C144.963 32.1772 144.407 32.3999 143.98 32.8452C143.559 33.2905 143.312 33.943 143.238 34.8027H147.914C147.907 34.2894 147.821 33.8348 147.654 33.439C147.493 33.0431 147.246 32.7339 146.912 32.5112C146.584 32.2886 146.163 32.1772 145.65 32.1772ZM159.408 38.0684C159.408 38.7425 159.244 39.3115 158.917 39.7754C158.589 40.2393 158.109 40.5918 157.479 40.833C156.854 41.068 156.087 41.1855 155.178 41.1855C154.46 41.1855 153.842 41.133 153.322 41.0278C152.809 40.9289 152.323 40.7743 151.866 40.564V38.6807C152.354 38.9095 152.902 39.1074 153.508 39.2744C154.12 39.4414 154.698 39.5249 155.243 39.5249C155.96 39.5249 156.477 39.4136 156.792 39.1909C157.107 38.9621 157.265 38.659 157.265 38.2817C157.265 38.0591 157.2 37.8612 157.07 37.688C156.947 37.5086 156.712 37.3262 156.365 37.1406C156.025 36.9489 155.524 36.7201 154.862 36.4541C154.213 36.1943 153.666 35.9346 153.22 35.6748C152.775 35.415 152.438 35.1027 152.209 34.7378C151.98 34.3667 151.866 33.8936 151.866 33.3184C151.866 32.4092 152.224 31.7196 152.942 31.2495C153.666 30.7733 154.621 30.5352 155.809 30.5352C156.439 30.5352 157.033 30.6001 157.59 30.73C158.153 30.8537 158.703 31.0361 159.241 31.2773L158.555 32.9194C158.091 32.7153 157.624 32.5483 157.154 32.4185C156.69 32.2824 156.217 32.2144 155.734 32.2144C155.172 32.2144 154.742 32.3009 154.445 32.4741C154.154 32.6473 154.009 32.8947 154.009 33.2163C154.009 33.4575 154.08 33.6616 154.222 33.8286C154.364 33.9956 154.609 34.1626 154.955 34.3296C155.308 34.4966 155.796 34.7038 156.421 34.9512C157.033 35.1862 157.562 35.4336 158.007 35.6934C158.459 35.9469 158.805 36.2593 159.046 36.6304C159.288 37.0015 159.408 37.4808 159.408 38.0684Z" fill="#131313"/>
</svg>
