<svg width="38" height="38" viewBox="0 0 38 38" fill="none" xmlns="http://www.w3.org/2000/svg">
<path d="M20.3568 1.25333C20.1849 1.06428 19.9755 0.913227 19.7419 0.809864C19.5082 0.706501 19.2556 0.653107 19.0001 0.653107C18.7446 0.653107 18.492 0.706501 18.2584 0.809864C18.0247 0.913227 17.8153 1.06428 17.6434 1.25333L1.14345 19.5867C0.900142 19.849 0.738912 20.1768 0.679634 20.5296C0.620357 20.8825 0.665621 21.245 0.809848 21.5724C0.954076 21.8998 1.19096 22.1779 1.49131 22.3723C1.79165 22.5668 2.14233 22.6691 2.50012 22.6667H6.16678V35.5C6.16678 35.9862 6.35994 36.4525 6.70375 36.7964C7.04757 37.1402 7.51389 37.3333 8.00012 37.3333H30.0001C30.4863 37.3333 30.9527 37.1402 31.2965 36.7964C31.6403 36.4525 31.8334 35.9862 31.8334 35.5V22.6667H35.5001C35.9863 22.6667 36.4527 22.4735 36.7965 22.1297C37.1403 21.7859 37.3334 21.3196 37.3334 20.8333C37.3368 20.3726 37.1667 19.9276 36.8568 19.5867L20.3568 1.25333Z" fill="#131313"/>
</svg>
