<svg width="28" height="29" viewBox="0 0 28 29" fill="none" xmlns="http://www.w3.org/2000/svg">
<path d="M14.0002 20.3333L15.1668 18V12.001C17.1747 11.4795 18.6668 9.66766 18.6668 7.49999C18.6668 4.92633 16.5738 2.83333 14.0002 2.83333C11.4265 2.83333 9.3335 4.92633 9.3335 7.49999C9.3335 9.66766 10.8257 11.4795 12.8335 12.001V18L14.0002 20.3333Z" fill="#131313"/>
<path d="M18.9783 12.8235L18.3565 15.0728C21.3793 15.9082 23.3335 17.5147 23.3335 19.1667C23.3335 21.374 19.501 23.8333 14.0002 23.8333C8.49933 23.8333 4.66683 21.374 4.66683 19.1667C4.66683 17.5147 6.621 15.9082 9.645 15.0717L9.02316 12.8223C4.89666 13.9633 2.3335 16.3935 2.3335 19.1667C2.3335 23.0913 7.45866 26.1667 14.0002 26.1667C20.5417 26.1667 25.6668 23.0913 25.6668 19.1667C25.6668 16.3935 23.1037 13.9633 18.9783 12.8235V12.8235Z" fill="#131313"/>
</svg>
