<svg width="30" height="30" viewBox="0 0 30 30" fill="none" xmlns="http://www.w3.org/2000/svg">
<path d="M15 0C6.729 0 0 6.729 0 15C0 23.271 6.729 30 15 30C23.271 30 30 23.271 30 15C30 6.729 23.271 0 15 0ZM16.5 22.3725V24H13.5V22.38C9.9915 21.8295 9 19.377 9 18H12C12.0165 18.2145 12.2385 19.5 15 19.5C17.07 19.5 18 18.6225 18 18C18 17.514 18 16.5 15 16.5C9.78 16.5 9 13.68 9 12C9 10.068 10.5435 8.124 13.5 7.6275V6.018H16.5V7.6815C19.101 8.2965 20.1 10.461 20.1 12H18.6L17.1 12.027C17.079 11.457 16.7775 10.5 15 10.5C13.0515 10.5 12 11.274 12 12C12 12.561 12 13.5 15 13.5C20.22 13.5 21 16.32 21 18C21 19.932 19.4565 21.876 16.5 22.3725Z" fill="#131313"/>
</svg>
