<svg width="28" height="30" viewBox="0 0 28 30" fill="none" xmlns="http://www.w3.org/2000/svg">
<path d="M14 30C14.929 30.0012 15.8352 29.7129 16.5927 29.1752C17.3503 28.6376 17.9215 27.8773 18.227 27H9.773C10.0785 27.8773 10.6497 28.6376 11.4073 29.1752C12.1648 29.7129 13.0711 30.0012 14 30ZM24.5 18.879V12C24.5 7.1745 21.2225 3.1095 16.7825 1.887C16.343 0.78 15.269 0 14 0C12.731 0 11.657 0.78 11.2175 1.887C6.7775 3.111 3.5 7.1745 3.5 12V18.879L0.939502 21.4395C0.799938 21.5786 0.689256 21.7438 0.613828 21.9259C0.5384 22.1079 0.499716 22.303 0.500002 22.5V24C0.500002 24.3978 0.658037 24.7794 0.939341 25.0607C1.22065 25.342 1.60218 25.5 2 25.5H26C26.3978 25.5 26.7794 25.342 27.0607 25.0607C27.342 24.7794 27.5 24.3978 27.5 24V22.5C27.5003 22.303 27.4616 22.1079 27.3862 21.9259C27.3107 21.7438 27.2001 21.5786 27.0605 21.4395L24.5 18.879Z" fill="#131313"/>
</svg>
