<svg width="28" height="30" viewBox="0 0 28 30" fill="none" xmlns="http://www.w3.org/2000/svg">
<path d="M3.5 30H24.5C25.2956 30 26.0587 29.6839 26.6213 29.1213C27.1839 28.5587 27.5 27.7957 27.5 27V10.5C27.5 10.1022 27.342 9.72065 27.0607 9.43935C26.7794 9.15805 26.3978 9.00001 26 9.00001H21.5V7.83451C21.5 3.92101 18.6455 0.41701 14.75 0.0375103C13.7073 -0.0661214 12.6545 0.0496616 11.6592 0.377411C10.664 0.705159 9.74836 1.23762 8.97128 1.94052C8.19419 2.64343 7.57285 3.50122 7.14724 4.45871C6.72162 5.4162 6.50114 6.45219 6.5 7.50001V9.00001H2C1.60218 9.00001 1.22064 9.15805 0.93934 9.43935C0.658035 9.72065 0.5 10.1022 0.5 10.5V27C0.5 27.7957 0.81607 28.5587 1.37868 29.1213C1.94129 29.6839 2.70435 30 3.5 30ZM21.5 12V15H18.5V12H21.5ZM9.5 7.50001C9.5 5.01901 11.519 3.00001 14 3.00001C16.481 3.00001 18.5 5.01901 18.5 7.50001V9.00001H9.5V7.50001ZM6.5 12H9.5V15H6.5V12Z" fill="#131313"/>
</svg>
