<svg width="281" height="68" viewBox="0 0 281 68" fill="none" xmlns="http://www.w3.org/2000/svg">
<rect width="281" height="68" fill="white"/>
<path d="M51.1232 34L52.7792 31.138C52.9782 30.7937 53.0324 30.3844 52.9297 30.0001C52.827 29.6159 52.576 29.2882 52.2317 29.089L49.3667 27.433V24.133C49.3667 23.7352 49.2087 23.3536 48.9274 23.0723C48.6461 22.791 48.2645 22.633 47.8667 22.633H44.5682L42.9137 19.7695C42.7139 19.4259 42.3868 19.1748 42.0032 19.0705C41.813 19.0189 41.6144 19.0056 41.4189 19.0314C41.2235 19.0571 41.0351 19.1214 40.8647 19.2205L37.9997 20.8765L35.1347 19.219C34.7902 19.0201 34.3808 18.9662 33.9965 19.0691C33.6123 19.1721 33.2846 19.4235 33.0857 19.768L31.4297 22.633H28.1312C27.7334 22.633 27.3519 22.791 27.0706 23.0723C26.7892 23.3536 26.6312 23.7352 26.6312 24.133V27.4315L23.7662 29.0875C23.5953 29.1858 23.4454 29.317 23.3253 29.4734C23.2052 29.6298 23.1172 29.8084 23.0663 29.999C23.0154 30.1895 23.0027 30.3882 23.0288 30.5837C23.055 30.7792 23.1195 30.9675 23.2187 31.138L24.8747 34L23.2187 36.862C23.0207 37.2067 22.967 37.6156 23.0692 37.9997C23.1715 38.3839 23.4215 38.7119 23.7647 38.9125L26.6297 40.5685V43.867C26.6297 44.2648 26.7877 44.6464 27.0691 44.9277C27.3504 45.209 27.7319 45.367 28.1297 45.367H31.4297L33.0857 48.232C33.2185 48.459 33.4081 48.6475 33.6359 48.779C33.8636 48.9105 34.1217 48.9805 34.3847 48.982C34.6457 48.982 34.9052 48.913 35.1362 48.7795L37.9982 47.1235L40.8632 48.7795C41.2076 48.9781 41.6168 49.032 42.0009 48.9294C42.385 48.8267 42.7128 48.576 42.9122 48.232L44.5667 45.367H47.8652C48.263 45.367 48.6446 45.209 48.9259 44.9277C49.2072 44.6464 49.3652 44.2648 49.3652 43.867V40.5685L52.2302 38.9125C52.4009 38.8139 52.5504 38.6826 52.6703 38.5261C52.7902 38.3697 52.8781 38.1911 52.9289 38.0007C52.9798 37.8103 52.9926 37.6117 52.9666 37.4163C52.9407 37.2209 52.8765 37.0326 52.7777 36.862L51.1232 34ZM34.2482 26.485C34.8451 26.4852 35.4176 26.7225 35.8395 27.1448C36.2615 27.567 36.4984 28.1396 36.4982 28.7365C36.498 29.3334 36.2607 29.9058 35.8385 30.3278C35.4162 30.7498 34.8436 30.9867 34.2467 30.9865C33.6498 30.9863 33.0774 30.749 32.6554 30.3267C32.2335 29.9045 31.9965 29.3319 31.9967 28.735C31.9969 28.1381 32.2342 27.5657 32.6565 27.1437C33.0787 26.7217 33.6513 26.4848 34.2482 26.485V26.485ZM34.6982 40.885L32.2982 39.0865L41.2982 27.0865L43.6982 28.885L34.6982 40.885ZM41.7482 41.485C41.4526 41.4849 41.16 41.4266 40.8869 41.3134C40.6139 41.2002 40.3658 41.0343 40.1569 40.8252C39.948 40.6162 39.7823 40.368 39.6693 40.0949C39.5562 39.8218 39.4981 39.5291 39.4982 39.2335C39.4983 38.9379 39.5566 38.6453 39.6698 38.3722C39.783 38.0992 39.9489 37.8511 40.158 37.6422C40.367 37.4333 40.6152 37.2676 40.8883 37.1545C41.1614 37.0415 41.4541 36.9834 41.7497 36.9835C42.3466 36.9837 42.9191 37.221 43.341 37.6433C43.763 38.0655 43.9999 38.6381 43.9997 39.235C43.9995 39.8319 43.7622 40.4043 43.34 40.8263C42.9177 41.2483 42.3451 41.4852 41.7482 41.485V41.485Z" fill="#131313"/>
<path d="M77.8232 34.1997C77.8232 35.245 77.6903 36.1974 77.4243 37.0571C77.1646 37.9106 76.7718 38.6466 76.2461 39.2651C75.7204 39.8774 75.0617 40.3506 74.27 40.6846C73.4784 41.0186 72.5506 41.1855 71.4868 41.1855C70.4045 41.1855 69.4644 41.0186 68.6665 40.6846C67.8748 40.3506 67.2161 39.8743 66.6904 39.2559C66.1709 38.6374 65.7812 37.8983 65.5215 37.0386C65.2617 36.1789 65.1318 35.2264 65.1318 34.1812C65.1318 32.7834 65.3607 31.5649 65.8184 30.5259C66.2822 29.4806 66.9842 28.6704 67.9243 28.0952C68.8706 27.5138 70.0643 27.2231 71.5054 27.2231C72.9155 27.2231 74.0876 27.5107 75.0215 28.0859C75.9554 28.6611 76.6543 29.4714 77.1182 30.5166C77.5882 31.5557 77.8232 32.7834 77.8232 34.1997ZM67.4697 34.1997C67.4697 35.245 67.612 36.151 67.8965 36.918C68.181 37.6787 68.617 38.2663 69.2046 38.6807C69.7983 39.0889 70.5591 39.293 71.4868 39.293C72.4207 39.293 73.1815 39.0889 73.769 38.6807C74.3566 38.2663 74.7896 37.6787 75.0679 36.918C75.3462 36.151 75.4854 35.245 75.4854 34.1997C75.4854 32.6102 75.1668 31.367 74.5298 30.4702C73.8989 29.5672 72.8908 29.1157 71.5054 29.1157C70.5776 29.1157 69.8138 29.3198 69.2139 29.728C68.6201 30.1362 68.181 30.7207 67.8965 31.4814C67.612 32.236 67.4697 33.1421 67.4697 34.1997ZM85.644 32.3906H83.1484V41H80.9683V32.3906H79.2891V31.3423L80.9683 30.7021V29.9878C80.9683 29.1157 81.1043 28.423 81.3765 27.9097C81.6548 27.3963 82.0506 27.0283 82.564 26.8057C83.0835 26.5768 83.702 26.4624 84.4194 26.4624C84.8895 26.4624 85.3193 26.5026 85.709 26.583C86.0986 26.6572 86.4264 26.7438 86.6924 26.8428L86.1265 28.4941C85.9162 28.4261 85.6812 28.3643 85.4214 28.3086C85.1616 28.2467 84.8833 28.2158 84.5864 28.2158C84.0916 28.2158 83.7267 28.3704 83.4917 28.6797C83.2629 28.9889 83.1484 29.4404 83.1484 30.0342V30.73H85.644V32.3906ZM92.5186 32.3906H90.0229V41H87.8428V32.3906H86.1636V31.3423L87.8428 30.7021V29.9878C87.8428 29.1157 87.9788 28.423 88.251 27.9097C88.5293 27.3963 88.9251 27.0283 89.4385 26.8057C89.958 26.5768 90.5765 26.4624 91.2939 26.4624C91.764 26.4624 92.1938 26.5026 92.5835 26.583C92.9731 26.6572 93.3009 26.7438 93.5669 26.8428L93.001 28.4941C92.7907 28.4261 92.5557 28.3643 92.2959 28.3086C92.0361 28.2467 91.7578 28.2158 91.4609 28.2158C90.9661 28.2158 90.6012 28.3704 90.3662 28.6797C90.1374 28.9889 90.0229 29.4404 90.0229 30.0342V30.73H92.5186V32.3906ZM98.354 30.5352C99.2694 30.5352 100.055 30.7238 100.71 31.1011C101.366 31.4784 101.87 32.0133 102.223 32.7061C102.575 33.3988 102.751 34.2275 102.751 35.1924V36.3613H95.8955C95.9202 37.3571 96.1862 38.124 96.6934 38.6621C97.2067 39.2002 97.9242 39.4692 98.8457 39.4692C99.5013 39.4692 100.089 39.4074 100.608 39.2837C101.134 39.1538 101.675 38.9652 102.232 38.7178V40.4897C101.719 40.731 101.196 40.9072 100.664 41.0186C100.132 41.1299 99.4951 41.1855 98.7529 41.1855C97.7448 41.1855 96.8573 40.9907 96.0903 40.6011C95.3296 40.2052 94.7327 39.6177 94.2998 38.8384C93.873 38.0591 93.6597 37.0911 93.6597 35.9346C93.6597 34.7842 93.8545 33.807 94.2441 33.0029C94.6338 32.1989 95.1812 31.5866 95.8862 31.166C96.5913 30.7454 97.4139 30.5352 98.354 30.5352ZM98.354 32.1772C97.6675 32.1772 97.1108 32.3999 96.6841 32.8452C96.2635 33.2905 96.0161 33.943 95.9419 34.8027H100.618C100.611 34.2894 100.525 33.8348 100.358 33.439C100.197 33.0431 99.9497 32.7339 99.6157 32.5112C99.2879 32.2886 98.8674 32.1772 98.354 32.1772ZM110.415 30.5352C110.588 30.5352 110.776 30.5444 110.98 30.563C111.185 30.5815 111.361 30.6063 111.509 30.6372L111.305 32.6782C111.175 32.6411 111.014 32.6133 110.823 32.5947C110.637 32.5762 110.47 32.5669 110.322 32.5669C109.932 32.5669 109.561 32.6318 109.208 32.7617C108.856 32.8854 108.544 33.0771 108.271 33.3369C107.999 33.5905 107.786 33.909 107.631 34.2925C107.477 34.6759 107.399 35.1213 107.399 35.6284V41H105.21V30.73H106.917L107.214 32.5391H107.316C107.52 32.1742 107.774 31.8402 108.077 31.5371C108.38 31.234 108.726 30.9928 109.116 30.8135C109.512 30.6279 109.944 30.5352 110.415 30.5352ZM120.313 38.0684C120.313 38.7425 120.15 39.3115 119.822 39.7754C119.494 40.2393 119.015 40.5918 118.384 40.833C117.759 41.068 116.992 41.1855 116.083 41.1855C115.366 41.1855 114.747 41.133 114.228 41.0278C113.714 40.9289 113.229 40.7743 112.771 40.564V38.6807C113.26 38.9095 113.807 39.1074 114.413 39.2744C115.025 39.4414 115.604 39.5249 116.148 39.5249C116.865 39.5249 117.382 39.4136 117.697 39.1909C118.013 38.9621 118.17 38.659 118.17 38.2817C118.17 38.0591 118.105 37.8612 117.976 37.688C117.852 37.5086 117.617 37.3262 117.271 37.1406C116.93 36.9489 116.429 36.7201 115.768 36.4541C115.118 36.1943 114.571 35.9346 114.125 35.6748C113.68 35.415 113.343 35.1027 113.114 34.7378C112.885 34.3667 112.771 33.8936 112.771 33.3184C112.771 32.4092 113.13 31.7196 113.847 31.2495C114.571 30.7733 115.526 30.5352 116.714 30.5352C117.345 30.5352 117.938 30.6001 118.495 30.73C119.058 30.8537 119.608 31.0361 120.146 31.2773L119.46 32.9194C118.996 32.7153 118.529 32.5483 118.059 32.4185C117.595 32.2824 117.122 32.2144 116.64 32.2144C116.077 32.2144 115.647 32.3009 115.35 32.4741C115.059 32.6473 114.914 32.8947 114.914 33.2163C114.914 33.4575 114.985 33.6616 115.127 33.8286C115.27 33.9956 115.514 34.1626 115.86 34.3296C116.213 34.4966 116.701 34.7038 117.326 34.9512C117.938 35.1862 118.467 35.4336 118.913 35.6934C119.364 35.9469 119.71 36.2593 119.952 36.6304C120.193 37.0015 120.313 37.4808 120.313 38.0684Z" fill="#131313"/>
</svg>
