<svg width="57" height="50" viewBox="0 0 57 50" fill="none" xmlns="http://www.w3.org/2000/svg">
<path d="M48.7582 11.6667C48.2637 10.8102 47.5538 10.0981 46.6988 9.60103C45.8439 9.10398 44.8738 8.83931 43.8848 8.83334H36.9998V3.16668C36.9998 2.41523 36.7013 1.69456 36.17 1.16321C35.6386 0.631855 34.918 0.333344 34.1665 0.333344H5.83317C4.33028 0.333344 2.88894 0.930365 1.82623 1.99307C0.763526 3.05578 0.166504 4.49712 0.166504 6.00001V34.3333C0.167523 35.3271 0.429842 36.303 0.927145 37.1634C1.42445 38.0237 2.13925 38.7381 2.99984 39.235C2.89839 41.8651 3.84589 44.4277 5.63389 46.3592C7.4219 48.2906 9.90394 49.4327 12.534 49.5342C15.1641 49.6356 17.7267 48.6881 19.6582 46.9001C21.5896 45.1121 22.7317 42.6301 22.8332 40H31.6165C31.9298 42.3707 33.094 44.5467 34.8922 46.1229C36.6905 47.6991 39.0002 48.5681 41.3915 48.5681C43.7828 48.5681 46.0926 47.6991 47.8908 46.1229C49.689 44.5467 50.8532 42.3707 51.1665 40C52.6694 40 54.1107 39.403 55.1734 38.3403C56.2361 37.2776 56.8332 35.8362 56.8332 34.3333V25.8333C56.8287 25.3164 56.6922 24.8093 56.4365 24.36L48.7582 11.6667ZM36.9998 14.5H43.8848L48.9848 23H36.9998V14.5ZM12.9165 42.8333C12.0759 42.8333 11.2542 42.5841 10.5553 42.1171C9.85642 41.6501 9.31169 40.9863 8.99002 40.2097C8.66834 39.4332 8.58418 38.5786 8.74817 37.7542C8.91215 36.9298 9.31693 36.1725 9.9113 35.5781C10.5057 34.9838 11.263 34.579 12.0874 34.415C12.9118 34.251 13.7663 34.3352 14.5429 34.6569C15.3195 34.9785 15.9833 35.5233 16.4503 36.2222C16.9172 36.9211 17.1665 37.7428 17.1665 38.5833C17.1665 39.7105 16.7187 40.7915 15.9217 41.5885C15.1247 42.3856 14.0437 42.8333 12.9165 42.8333ZM41.2498 42.8333C40.4093 42.8333 39.5876 42.5841 38.8887 42.1171C38.1898 41.6501 37.645 40.9863 37.3234 40.2097C37.0017 39.4332 36.9175 38.5786 37.0815 37.7542C37.2455 36.9298 37.6503 36.1725 38.2446 35.5781C38.839 34.9838 39.5963 34.579 40.4207 34.415C41.2451 34.251 42.0997 34.3352 42.8762 34.6569C43.6528 34.9785 44.3166 35.5233 44.7836 36.2222C45.2506 36.9211 45.4998 37.7428 45.4998 38.5833C45.4998 39.7105 45.0521 40.7915 44.255 41.5885C43.458 42.3856 42.377 42.8333 41.2498 42.8333Z" fill="#FF7518"/>
</svg>
