<svg width="30" height="29" viewBox="0 0 30 29" fill="none" xmlns="http://www.w3.org/2000/svg">
<path d="M25.5 0H4.5C2.019 0 0 2.019 0 4.5V8.7465C0 10.326 0.573 11.7615 1.5 12.8655V27C1.5 27.3978 1.65804 27.7794 1.93934 28.0607C2.22064 28.342 2.60218 28.5 3 28.5H15C15.3978 28.5 15.7794 28.342 16.0607 28.0607C16.342 27.7794 16.5 27.3978 16.5 27V19.5H22.5V27C22.5 27.3978 22.658 27.7794 22.9393 28.0607C23.2206 28.342 23.6022 28.5 24 28.5H27C27.3978 28.5 27.7794 28.342 28.0607 28.0607C28.342 27.7794 28.5 27.3978 28.5 27V12.864C29.427 11.7615 30 10.326 30 8.745V4.5C30 2.019 27.981 0 25.5 0ZM27 4.5V8.7465C27 10.4565 25.7265 11.9145 24.1635 11.997L24 12C22.3455 12 21 10.6545 21 9V3H25.5C26.328 3 27 3.6735 27 4.5ZM12 9V3H18V9C18 10.6545 16.6545 12 15 12C13.3455 12 12 10.6545 12 9ZM3 4.5C3 3.6735 3.672 3 4.5 3H9V9C9 10.6545 7.6545 12 6 12L5.8365 11.9955C4.2735 11.9145 3 10.4565 3 8.7465V4.5ZM12 21H6V16.5H12V21Z" fill="#131313"/>
</svg>
