<svg width="30" height="24" viewBox="0 0 30 24" fill="none" xmlns="http://www.w3.org/2000/svg">
<path d="M27 0H3C1.3455 0 0 1.3455 0 3V21C0 22.6545 1.3455 24 3 24H27C28.6545 24 30 22.6545 30 21V3C30 1.3455 28.6545 0 27 0ZM15.75 18C14.7554 18 13.8016 17.6049 13.0983 16.9017C12.3951 16.1984 12 15.2446 12 14.25C12 13.2554 12.3951 12.3016 13.0983 11.5983C13.8016 10.8951 14.7554 10.5 15.75 10.5C16.564 10.5019 17.3547 10.7718 18 11.268C17.094 11.952 16.5 13.0275 16.5 14.25C16.5 15.4725 17.094 16.548 18 17.232C17.3547 17.7282 16.564 17.9981 15.75 18V18ZM21.75 18C20.7554 18 19.8016 17.6049 19.0983 16.9017C18.3951 16.1984 18 15.2446 18 14.25C18 13.2554 18.3951 12.3016 19.0983 11.5983C19.8016 10.8951 20.7554 10.5 21.75 10.5C22.7446 10.5 23.6984 10.8951 24.4017 11.5983C25.1049 12.3016 25.5 13.2554 25.5 14.25C25.5 15.2446 25.1049 16.1984 24.4017 16.9017C23.6984 17.6049 22.7446 18 21.75 18Z" fill="#131313"/>
</svg>
