<svg width="38" height="36" viewBox="0 0 38 36" fill="none" xmlns="http://www.w3.org/2000/svg">
<path d="M33.667 7.99999H28.167V4.33332C28.167 2.31116 26.5225 0.666656 24.5003 0.666656H13.5003C11.4782 0.666656 9.83366 2.31116 9.83366 4.33332V7.99999H4.33366C2.31149 7.99999 0.666992 9.64449 0.666992 11.6667V17.1667H37.3337V11.6667C37.3337 9.64449 35.6892 7.99999 33.667 7.99999ZM13.5003 4.33332H24.5003V7.99999H13.5003V4.33332ZM22.667 22.6667H15.3337V19H0.666992V31.8333C0.666992 33.8555 2.31149 35.5 4.33366 35.5H33.667C35.6892 35.5 37.3337 33.8555 37.3337 31.8333V19H22.667V22.6667Z" fill="#131313"/>
</svg>
